<svg xmlns="http://www.w3.org/2000/svg" width="32" height="32" enable-background="new 0 0 32 32" viewBox="0 0 32 32" id="timer"><circle cx="19.252" cy="10.146" r=".499" fill="#ae7aff"/><path fill="#ae7aff" d="M12.286,25.663c0.104-0.256,0.397-0.377,0.653-0.271c0.253,0.103,0.376,0.397,0.27,0.653      c-0.105,0.254-0.398,0.376-0.652,0.269C12.303,26.209,12.18,25.916,12.286,25.663z"/><circle cx="22.01" cy="11.989" r=".499" fill="#ae7aff"/><circle cx="9.99" cy="24.011" r=".499" fill="#ae7aff"/><circle cx="23.853" cy="14.747" r=".499" fill="#ae7aff"/><circle cx="8.147" cy="21.253" r=".499" fill="#ae7aff"/><circle cx="24.5" cy="18" r=".5" fill="#ae7aff"/><circle cx="7.5" cy="18" r=".5" fill="#ae7aff"/><circle cx="23.854" cy="21.252" r=".5" fill="#ae7aff"/><circle cx="8.146" cy="14.748" r=".5" fill="#ae7aff"/><g><circle cx="22.011" cy="24.01" r=".5" fill="#ae7aff"/><circle cx="9.989" cy="11.99" r=".5" fill="#ae7aff"/></g><g><circle cx="19.253" cy="25.853" r=".5" fill="#ae7aff"/><circle cx="12.747" cy="10.147" r=".5" fill="#ae7aff"/></g><g><circle cx="16" cy="26.5" r=".5" fill="#ae7aff"/><circle cx="16" cy="9.5" r=".5" fill="#ae7aff"/></g><g><path fill="#ae7aff" d="M16,17.5c-0.276,0-0.5-0.224-0.5-0.5v-6c0-0.276,0.224-0.5,0.5-0.5s0.5,0.224,0.5,0.5v6     C16.5,17.276,16.276,17.5,16,17.5z"/></g><g><path fill="#ae7aff" d="M16,19.5c-0.827,0-1.5-0.673-1.5-1.5s0.673-1.5,1.5-1.5s1.5,0.673,1.5,1.5S16.827,19.5,16,19.5z M16,17.5     c-0.276,0-0.5,0.225-0.5,0.5s0.224,0.5,0.5,0.5s0.5-0.225,0.5-0.5S16.276,17.5,16,17.5z"/></g><g><path fill="#ae7aff" d="M23.347 8.387c-.102 0-.205-.031-.293-.096-.223-.162-.273-.475-.11-.698l1.175-1.617c.161-.224.474-.273.698-.11.223.162.273.475.11.698l-1.175 1.617C23.654 8.315 23.502 8.387 23.347 8.387zM8.653 8.388c-.155 0-.307-.071-.405-.206L7.073 6.563C6.911 6.34 6.96 6.027 7.184 5.865c.225-.162.537-.113.699.11l1.175 1.618C9.219 7.817 9.169 8.13 8.946 8.292 8.857 8.356 8.754 8.388 8.653 8.388z"/></g><g><path fill="#ae7aff" d="M16.5,6C16.224,6,16,5.776,16,5.5v-2C16,3.224,16.224,3,16.5,3S17,3.224,17,3.5v2      C17,5.776,16.776,6,16.5,6z"/></g><path fill="#ae7aff" d="M16 31C8.832 31 3 25.168 3 18c0-3.343 1.267-6.52 3.566-8.945.19-.2.506-.207.707-.02.201.19.209.507.019.707C5.169 11.982 4 14.915 4 18c0 6.617 5.383 12 12 12s12-5.383 12-12c0-3.821-1.76-7.327-4.828-9.621-.221-.165-.267-.479-.101-.7.166-.221.479-.267.7-.101C27.094 10.063 29 13.86 29 18 29 25.168 23.168 31 16 31zM8.652 8.387c-.155 0-.307-.071-.405-.206-.163-.223-.113-.536.11-.698C10.59 5.858 13.232 5 16 5c2.017 0 3.951.449 5.747 1.336.248.122.35.422.227.67-.121.247-.42.35-.669.227C19.647 6.415 17.862 6 16 6c-2.555 0-4.994.792-7.055 2.291C8.857 8.355 8.754 8.387 8.652 8.387z"/><path fill="#ae7aff" d="M16 29C9.935 29 5 24.065 5 18S9.935 7 16 7s11 4.935 11 11S22.065 29 16 29zM16 8C10.486 8 6 12.486 6 18s4.486 10 10 10 10-4.486 10-10S21.514 8 16 8zM17.5 4h-1C16.224 4 16 3.776 16 3.5S16.224 3 16.5 3H17V2h-2v.5C15 2.776 14.776 3 14.5 3S14 2.776 14 2.5v-1C14 1.224 14.224 1 14.5 1h3C17.776 1 18 1.224 18 1.5v2C18 3.776 17.776 4 17.5 4z"/></svg>